<svg xmlns="http://www.w3.org/2000/svg" viewBox="0 0 1440 320"><path fill="#0099ff" fill-opacity="1" d="M0,288L6.2,277.3C12.3,267,25,245,37,213.3C49.2,181,62,139,74,149.3C86.2,160,98,224,111,256C123.1,288,135,288,148,288C160,288,172,288,185,288C196.9,288,209,288,222,293.3C233.8,299,246,309,258,288C270.8,267,283,213,295,213.3C307.7,213,320,267,332,277.3C344.6,288,357,256,369,224C381.5,192,394,160,406,170.7C418.5,181,431,235,443,240C455.4,245,468,203,480,186.7C492.3,171,505,181,517,170.7C529.2,160,542,128,554,101.3C566.2,75,578,53,591,80C603.1,107,615,181,628,181.3C640,181,652,107,665,112C676.9,117,689,203,702,234.7C713.8,267,726,245,738,208C750.8,171,763,117,775,117.3C787.7,117,800,171,812,165.3C824.6,160,837,96,849,69.3C861.5,43,874,53,886,85.3C898.5,117,911,171,923,213.3C935.4,256,948,288,960,277.3C972.3,267,985,213,997,186.7C1009.2,160,1022,160,1034,133.3C1046.2,107,1058,53,1071,26.7C1083.1,0,1095,0,1108,5.3C1120,11,1132,21,1145,58.7C1156.9,96,1169,160,1182,192C1193.8,224,1206,224,1218,202.7C1230.8,181,1243,139,1255,144C1267.7,149,1280,203,1292,224C1304.6,245,1317,235,1329,229.3C1341.5,224,1354,224,1366,224C1378.5,224,1391,224,1403,229.3C1415.4,235,1428,245,1434,250.7L1440,256L1440,320L1433.8,320C1427.7,320,1415,320,1403,320C1390.8,320,1378,320,1366,320C1353.8,320,1342,320,1329,320C1316.9,320,1305,320,1292,320C1280,320,1268,320,1255,320C1243.1,320,1231,320,1218,320C1206.2,320,1194,320,1182,320C1169.2,320,1157,320,1145,320C1132.3,320,1120,320,1108,320C1095.4,320,1083,320,1071,320C1058.5,320,1046,320,1034,320C1021.5,320,1009,320,997,320C984.6,320,972,320,960,320C947.7,320,935,320,923,320C910.8,320,898,320,886,320C873.8,320,862,320,849,320C836.9,320,825,320,812,320C800,320,788,320,775,320C763.1,320,751,320,738,320C726.2,320,714,320,702,320C689.2,320,677,320,665,320C652.3,320,640,320,628,320C615.4,320,603,320,591,320C578.5,320,566,320,554,320C541.5,320,529,320,517,320C504.6,320,492,320,480,320C467.7,320,455,320,443,320C430.8,320,418,320,406,320C393.8,320,382,320,369,320C356.9,320,345,320,332,320C320,320,308,320,295,320C283.1,320,271,320,258,320C246.2,320,234,320,222,320C209.2,320,197,320,185,320C172.3,320,160,320,148,320C135.4,320,123,320,111,320C98.5,320,86,320,74,320C61.5,320,49,320,37,320C24.6,320,12,320,6,320L0,320Z"></path></svg>