<svg width="64" height="64" viewBox="0 0 64 64" fill="none" xmlns="http://www.w3.org/2000/svg">
<path d="M20.5 8V56" stroke="#336DFF" stroke-width="3" stroke-linecap="round"/>
<path d="M56 20.5L8 20.5" stroke="#336DFF" stroke-width="3" stroke-linecap="round"/>
<path d="M32 8V56" stroke="#336DFF" stroke-width="3" stroke-linecap="round"/>
<path d="M56 32L8 32" stroke="#336DFF" stroke-width="3" stroke-linecap="round"/>
<path d="M43.5 8V56" stroke="#336DFF" stroke-width="3" stroke-linecap="round"/>
<path d="M56 43.5L8 43.5" stroke="#336DFF" stroke-width="3" stroke-linecap="round"/>
<rect x="12" y="12" width="40" height="40" rx="5" fill="#336DFF"/>
<path d="M24.488 36H17.664L17.616 35.904C17.5893 35.8293 17.576 35.4693 17.576 34.824C17.576 34.0613 18.096 33.2747 19.136 32.464C20 31.7547 20.616 31.1653 20.984 30.696C21.352 30.2267 21.536 29.7653 21.536 29.312C21.536 29.0507 21.4773 28.8027 21.36 28.568C21.152 28.1467 20.8427 27.936 20.432 27.936C20.0853 27.936 19.792 27.9733 19.552 28.048L19.168 29.696L17.712 29.688L17.592 27.808C18.1733 26.928 19.2853 26.488 20.928 26.488C21.3013 26.488 21.648 26.5147 21.968 26.568C22.288 26.6213 22.5947 26.7147 22.888 26.848C23.1867 26.9813 23.44 27.1493 23.648 27.352C23.856 27.5547 24.0213 27.816 24.144 28.136C24.2667 28.4507 24.328 28.8133 24.328 29.224C24.328 29.5227 24.28 29.808 24.184 30.08C24.0933 30.3467 23.968 30.584 23.808 30.792C23.6533 30.9947 23.4667 31.1973 23.248 31.4C23.0293 31.6027 22.8 31.784 22.56 31.944C22.3253 32.104 22.072 32.2747 21.8 32.456C21.5333 32.6373 21.2773 32.8107 21.032 32.976C20.792 33.136 20.5493 33.32 20.304 33.528C20.064 33.736 19.8587 33.944 19.688 34.152L24.488 33.792V36ZM29.3299 32.656V29.12L26.9779 32.656H29.3299ZM29.3299 36V34.224H25.1779L25.0179 32.648L29.6739 26.624H32.0819V32.656H33.1299V34.224H32.0819V36H29.3299ZM33.716 36L36.844 25.688H38.956L35.836 36H33.716ZM40.6439 36C40.7452 34.992 40.9239 34.0267 41.1799 33.104C41.4412 32.176 41.8012 31.3067 42.2599 30.496C42.7185 29.68 43.2439 29.0373 43.8359 28.568L39.4919 28.752V26.632H45.4679L45.9239 28.08C45.6839 28.288 45.4492 28.5947 45.2199 29C44.9905 29.4 44.7692 29.8907 44.5559 30.472C44.3479 31.048 44.1799 31.744 44.0519 32.56C43.9239 33.376 43.8599 34.2373 43.8599 35.144C43.8599 35.4267 43.8679 35.712 43.8839 36H40.6439Z" fill="url(#paint0_linear_2384_29)"/>
<defs>
<linearGradient id="paint0_linear_2384_29" x1="26.9645" y1="30.5938" x2="28.5355" y2="44.4062" gradientUnits="userSpaceOnUse">
<stop stop-color="white"/>
<stop offset="1" stop-color="#999999"/>
</linearGradient>
</defs>
</svg>
