<svg width="64" height="64" viewBox="0 0 64 64" fill="none" xmlns="http://www.w3.org/2000/svg">
<path d="M42.3882 26.0457L36.017 21.6697L41.9987 19.9805L42.3882 26.0457Z" fill="#336DFF"/>
<path d="M12.6255 39.0294C12.052 39.6272 12.0716 40.5767 12.6694 41.1503C13.2672 41.7238 14.2167 41.7042 14.7903 41.1064L12.6255 39.0294ZM18.6006 34.9686L19.1597 33.5767C18.5917 33.3485 17.942 33.4884 17.5182 33.9301L18.6006 34.9686ZM28.8708 39.0942L28.3117 40.486C28.9607 40.7468 29.7038 40.5243 30.1028 39.9498L28.8708 39.0942ZM14.7903 41.1064L19.6829 36.0071L17.5182 33.9301L12.6255 39.0294L14.7903 41.1064ZM18.0414 36.3605L28.3117 40.486L29.4299 37.7023L19.1597 33.5767L18.0414 36.3605ZM30.1028 39.9498L40.854 24.4689L38.3899 22.7576L27.6388 38.2385L30.1028 39.9498Z" fill="url(#paint0_linear_2481_381)"/>
<path d="M8.5 20L8.5 44.5L41.5 44.5" stroke="#336DFF" stroke-width="3" stroke-linecap="round"/>
<defs>
<linearGradient id="paint0_linear_2481_381" x1="26.1919" y1="24.4757" x2="27.1379" y2="39.2054" gradientUnits="userSpaceOnUse">
<stop stop-color="#336DFF"/>
<stop offset="1" stop-color="#C8D1EA"/>
</linearGradient>
</defs>
</svg>
